<svg xmlns="http://www.w3.org/2000/svg" version="1.1" xmlns:xlink="http://www.w3.org/1999/xlink" viewBox="0 0 200 200" width="200" height="200"><metadata><rdf:RDF xmlns:rdf="http://www.w3.org/1999/02/22-rdf-syntax-ns#" xmlns:dc="http://purl.org/dc/elements/1.1/"><rdf:Description><dc:creator>RealFaviconGenerator</dc:creator><dc:source>https://realfavicongenerator.net</dc:source></rdf:Description></rdf:RDF></metadata><rect width="200" height="200" fill="url('#gradient')"></rect><defs><linearGradient id="gradient" gradientTransform="rotate(45 0.5 0.5)"><stop offset="0%" stop-color="#1d2b8a"></stop><stop offset="100%" stop-color="#1d2b8a"></stop></linearGradient></defs><g><g fill="#ffffff" transform="matrix(4.494364089775561,0,0,4.494364089775561,9.173823903897159,133.26063668134503)" stroke="#ffffff" stroke-width="0"><path d="M8.41-3.78L8.41-3.78Q8.41-4.53 7.88-4.95Q7.34-5.37 6.01-5.82Q4.67-6.27 3.82-6.69L3.82-6.69Q1.05-8.05 1.05-10.42L1.05-10.42Q1.05-11.60 1.74-12.50Q2.43-13.41 3.69-13.91Q4.95-14.41 6.52-14.41L6.52-14.41Q8.06-14.41 9.27-13.87Q10.49-13.32 11.16-12.31Q11.84-11.30 11.84-10L11.84-10L8.42-10Q8.42-10.87 7.89-11.35Q7.35-11.83 6.45-11.83L6.45-11.83Q5.53-11.83 5.00-11.42Q4.46-11.02 4.46-10.39L4.46-10.39Q4.46-9.84 5.05-9.40Q5.63-8.96 7.11-8.48Q8.58-8.01 9.53-7.46L9.53-7.46Q11.84-6.13 11.84-3.80L11.84-3.80Q11.84-1.93 10.43-0.87Q9.02 0.20 6.57 0.20L6.57 0.20Q4.84 0.20 3.44-0.42Q2.04-1.04 1.33-2.12Q0.63-3.20 0.63-4.61L0.63-4.61L4.06-4.61Q4.06-3.47 4.65-2.92Q5.24-2.38 6.57-2.38L6.57-2.38Q7.42-2.38 7.92-2.75Q8.41-3.12 8.41-3.78ZM16.91-15L16.91 0L13.61 0L13.61-15L16.91-15ZM22.41-10.57L22.41 0L19.11 0L19.11-10.57L22.41-10.57ZM18.92-13.29L18.92-13.29Q18.92-13.99 19.42-14.44Q19.93-14.89 20.74-14.89Q21.55-14.89 22.06-14.44Q22.57-13.99 22.57-13.29Q22.57-12.59 22.06-12.14Q21.55-11.69 20.74-11.69Q19.93-11.69 19.42-12.14Q18.92-12.59 18.92-13.29ZM24.46-10.57L27.55-10.57L27.66-9.33Q28.78-10.76 30.67-10.76L30.67-10.76Q32.68-10.76 33.38-9.17L33.38-9.17Q34.45-10.76 36.48-10.76L36.48-10.76Q39.70-10.76 39.79-6.88L39.79-6.88L39.79 0L36.48 0L36.48-6.67Q36.48-7.48 36.21-7.85Q35.94-8.22 35.21-8.22L35.21-8.22Q34.24-8.22 33.76-7.35L33.76-7.35L33.77-7.22L33.77 0L30.47 0L30.47-6.65Q30.47-7.48 30.21-7.85Q29.94-8.22 29.20-8.22L29.20-8.22Q28.25-8.22 27.75-7.35L27.75-7.35L27.75 0L24.46 0L24.46-10.57Z"></path></g></g></svg>